<?xml version="1.0" encoding="UTF-8" standalone="no"?>
<!-- Created with Inkscape (http://www.inkscape.org/) -->

<svg
   width="165.84402mm"
   height="161.82336mm"
   viewBox="0 0 165.84402 161.82336"
   version="1.1"
   id="svg5"
   inkscape:version="1.1.2 (b8e25be833, 2022-02-05)"
   sodipodi:docname="concentration_acide_faible_pH_diag_log.svg"
   xmlns:inkscape="http://www.inkscape.org/namespaces/inkscape"
   xmlns:sodipodi="http://sodipodi.sourceforge.net/DTD/sodipodi-0.dtd"
   xmlns="http://www.w3.org/2000/svg"
   xmlns:svg="http://www.w3.org/2000/svg">
  <sodipodi:namedview
     id="namedview7"
     pagecolor="#ffffff"
     bordercolor="#666666"
     borderopacity="1.0"
     inkscape:pageshadow="2"
     inkscape:pageopacity="0.0"
     inkscape:pagecheckerboard="0"
     inkscape:document-units="mm"
     showgrid="false"
     inkscape:zoom="0.90583671"
     inkscape:cx="356.02443"
     inkscape:cy="413.9819"
     inkscape:window-width="1920"
     inkscape:window-height="1137"
     inkscape:window-x="-8"
     inkscape:window-y="-8"
     inkscape:window-maximized="1"
     inkscape:current-layer="layer1"
     fit-margin-top="0"
     fit-margin-left="0"
     fit-margin-right="0"
     fit-margin-bottom="0" />
  <defs
     id="defs2">
    <marker
       style="overflow:visible"
       id="Arrow1Mstart"
       refX="0"
       refY="0"
       orient="auto"
       inkscape:stockid="Arrow1Mstart"
       inkscape:isstock="true">
      <path
         transform="matrix(0.4,0,0,0.4,4,0)"
         style="fill:context-stroke;fill-rule:evenodd;stroke:context-stroke;stroke-width:1pt"
         d="M 0,0 5,-5 -12.5,0 5,5 Z"
         id="path1245" />
    </marker>
    <marker
       style="overflow:visible"
       id="Arrow1Mend"
       refX="0"
       refY="0"
       orient="auto"
       inkscape:stockid="Arrow1Mend"
       inkscape:isstock="true">
      <path
         transform="matrix(-0.4,0,0,-0.4,-4,0)"
         style="fill:context-stroke;fill-rule:evenodd;stroke:context-stroke;stroke-width:1pt"
         d="M 0,0 5,-5 -12.5,0 5,5 Z"
         id="path1248" />
    </marker>
  </defs>
  <g
     inkscape:label="Calque 1"
     inkscape:groupmode="layer"
     id="layer1"
     transform="translate(13.288188,20.220407)">
    <rect
       style="fill:#c0c0c0;fill-opacity:1;stroke:none;stroke-width:0.132292;stroke-miterlimit:4;stroke-dasharray:1.05833, 0.529167;stroke-dashoffset:0"
       id="rect48034"
       width="20.000002"
       height="140"
       x="37.599998"
       y="0" />
    <path
       style="fill:none;stroke:#000000;stroke-width:0.264583px;stroke-linecap:butt;stroke-linejoin:miter;stroke-opacity:1;marker-end:url(#Arrow1Mend)"
       d="M 0,0 H 145.29167"
       id="path857"
       sodipodi:nodetypes="cc" />
    <path
       style="fill:none;stroke:#000000;stroke-width:0.264583px;stroke-linecap:butt;stroke-linejoin:miter;stroke-opacity:1;marker-start:url(#Arrow1Mstart)"
       d="M -1.88e-4,-5.2916667 V 140"
       id="path1081"
       sodipodi:nodetypes="cc" />
    <path
       style="fill:none;stroke:#000000;stroke-width:0.264583px;stroke-linecap:butt;stroke-linejoin:miter;stroke-opacity:1"
       d="m 9.9998008,0 3.982e-4,-2"
       id="path1586"
       sodipodi:nodetypes="cc" />
    <path
       style="fill:none;stroke:#000000;stroke-width:0.264583px;stroke-linecap:butt;stroke-linejoin:miter;stroke-opacity:1"
       d="m 0,20.000197 -2,-3.98e-4"
       id="path1586-8"
       sodipodi:nodetypes="cc" />
    <path
       style="fill:none;stroke:#000000;stroke-width:0.264583px;stroke-linecap:butt;stroke-linejoin:miter;stroke-opacity:1"
       d="m 0,40.000196 -2,-3.98e-4"
       id="path1586-8-5"
       sodipodi:nodetypes="cc" />
    <path
       style="fill:none;stroke:#000000;stroke-width:0.264583px;stroke-linecap:butt;stroke-linejoin:miter;stroke-opacity:1"
       d="M 0,10.000199 -2,9.999801"
       id="path1586-8-5-8"
       sodipodi:nodetypes="cc" />
    <path
       style="fill:none;stroke:#000000;stroke-width:0.264583px;stroke-linecap:butt;stroke-linejoin:miter;stroke-opacity:1"
       d="m 0,30.000196 -2,-3.98e-4"
       id="path1586-8-5-1"
       sodipodi:nodetypes="cc" />
    <path
       style="fill:none;stroke:#000000;stroke-width:0.264583px;stroke-linecap:butt;stroke-linejoin:miter;stroke-opacity:1"
       d="m 0,50.000195 -2,-3.98e-4"
       id="path1586-8-5-3"
       sodipodi:nodetypes="cc" />
    <path
       style="fill:none;stroke:#000000;stroke-width:0.264583px;stroke-linecap:butt;stroke-linejoin:miter;stroke-opacity:1"
       d="M 2.5e-8,70.000196 -2,69.999798"
       id="path1586-8-5-15"
       sodipodi:nodetypes="cc" />
    <path
       style="fill:none;stroke:#000000;stroke-width:0.264583px;stroke-linecap:butt;stroke-linejoin:miter;stroke-opacity:1"
       d="m 0,90.000193 -2,-3.98e-4"
       id="path1586-8-5-5"
       sodipodi:nodetypes="cc" />
    <path
       style="fill:none;stroke:#000000;stroke-width:0.264583px;stroke-linecap:butt;stroke-linejoin:miter;stroke-opacity:1"
       d="m 0,110.0002 -2,-4e-4"
       id="path1586-8-5-6"
       sodipodi:nodetypes="cc" />
    <path
       style="fill:none;stroke:#000000;stroke-width:0.264583px;stroke-linecap:butt;stroke-linejoin:miter;stroke-opacity:1"
       d="m 0,130.00019 -2,-4e-4"
       id="path1586-8-5-62"
       sodipodi:nodetypes="cc" />
    <path
       style="fill:none;stroke:#000000;stroke-width:0.264583px;stroke-linecap:butt;stroke-linejoin:miter;stroke-opacity:1"
       d="m 0,60.000193 -2,-3.98e-4"
       id="path1586-8-3"
       sodipodi:nodetypes="cc" />
    <path
       style="fill:none;stroke:#000000;stroke-width:0.264583px;stroke-linecap:butt;stroke-linejoin:miter;stroke-opacity:1"
       d="m 0,80.000195 -2,-3.98e-4"
       id="path1586-8-7"
       sodipodi:nodetypes="cc" />
    <path
       style="fill:none;stroke:#000000;stroke-width:0.264583px;stroke-linecap:butt;stroke-linejoin:miter;stroke-opacity:1"
       d="m 0,100.0002 -2,-3.96e-4"
       id="path1586-8-9"
       sodipodi:nodetypes="cc" />
    <path
       style="fill:none;stroke:#000000;stroke-width:0.264583px;stroke-linecap:butt;stroke-linejoin:miter;stroke-opacity:1"
       d="m 0,120.00019 -2,-4e-4"
       id="path1586-8-54"
       sodipodi:nodetypes="cc" />
    <path
       style="fill:none;stroke:#000000;stroke-width:0.264583px;stroke-linecap:butt;stroke-linejoin:miter;stroke-opacity:1"
       d="m 0,140.0002 -2,-4e-4"
       id="path1586-8-0"
       sodipodi:nodetypes="cc" />
    <path
       style="fill:none;stroke:#000000;stroke-width:0.264583px;stroke-linecap:butt;stroke-linejoin:miter;stroke-opacity:1"
       d="m 139.9998,0 4e-4,-2"
       id="path1586-0"
       sodipodi:nodetypes="cc" />
    <path
       style="fill:none;stroke:#000000;stroke-width:0.264583px;stroke-linecap:butt;stroke-linejoin:miter;stroke-opacity:1"
       d="M 19.999799,1.5e-8 20.000199,-2"
       id="path1586-0-4"
       sodipodi:nodetypes="cc" />
    <path
       style="fill:none;stroke:#000000;stroke-width:0.264583px;stroke-linecap:butt;stroke-linejoin:miter;stroke-opacity:1"
       d="M 29.999798,-2.5e-8 30.000198,-2"
       id="path1586-0-5"
       sodipodi:nodetypes="cc" />
    <path
       style="fill:none;stroke:#000000;stroke-width:0.264583px;stroke-linecap:butt;stroke-linejoin:miter;stroke-opacity:1"
       d="M 39.999798,-2.5e-8 40.000198,-2"
       id="path1586-0-57"
       sodipodi:nodetypes="cc" />
    <path
       style="fill:none;stroke:#000000;stroke-width:0.264583px;stroke-linecap:butt;stroke-linejoin:miter;stroke-opacity:1"
       d="M 49.999795,1.5e-8 50.000195,-2"
       id="path1586-0-9"
       sodipodi:nodetypes="cc" />
    <path
       style="fill:none;stroke:#000000;stroke-width:0.264583px;stroke-linecap:butt;stroke-linejoin:miter;stroke-opacity:1"
       d="m 59.999797,0 4e-4,-2"
       id="path1586-0-51"
       sodipodi:nodetypes="cc" />
    <path
       style="fill:none;stroke:#000000;stroke-width:0.264583px;stroke-linecap:butt;stroke-linejoin:miter;stroke-opacity:1"
       d="M 69.9998,-2.5e-8 70.0002,-4"
       id="path1586-0-94"
       sodipodi:nodetypes="cc" />
    <path
       style="fill:none;stroke:#000000;stroke-width:0.264583px;stroke-linecap:butt;stroke-linejoin:miter;stroke-opacity:1"
       d="M 47.5998,-1.2499999e-8 47.6002,-4"
       id="path1586-0-94-4"
       sodipodi:nodetypes="cc" />
    <path
       style="fill:none;stroke:#000000;stroke-width:0.264583px;stroke-linecap:butt;stroke-linejoin:miter;stroke-opacity:1"
       d="M 79.999796,-2.5e-8 80.000196,-2"
       id="path1586-0-3"
       sodipodi:nodetypes="cc" />
    <path
       style="fill:none;stroke:#000000;stroke-width:0.264583px;stroke-linecap:butt;stroke-linejoin:miter;stroke-opacity:1"
       d="M 89.999796,1.5e-8 90.000196,-2"
       id="path1586-0-48"
       sodipodi:nodetypes="cc" />
    <path
       style="fill:none;stroke:#000000;stroke-width:0.264583px;stroke-linecap:butt;stroke-linejoin:miter;stroke-opacity:1"
       d="m 99.999799,0 4.01e-4,-2"
       id="path1586-0-7"
       sodipodi:nodetypes="cc" />
    <path
       style="fill:none;stroke:#000000;stroke-width:0.264583px;stroke-linecap:butt;stroke-linejoin:miter;stroke-opacity:1"
       d="m 109.9998,0 4e-4,-2"
       id="path1586-0-52"
       sodipodi:nodetypes="cc" />
    <path
       style="fill:none;stroke:#000000;stroke-width:0.264583px;stroke-linecap:butt;stroke-linejoin:miter;stroke-opacity:1"
       d="M 119.99979,1.5e-8 120.00019,-2"
       id="path1586-0-20"
       sodipodi:nodetypes="cc" />
    <path
       style="fill:none;stroke:#000000;stroke-width:0.264583px;stroke-linecap:butt;stroke-linejoin:miter;stroke-opacity:1"
       d="m 129.99979,0 4e-4,-2"
       id="path1586-0-6"
       sodipodi:nodetypes="cc" />
    <text
       xml:space="preserve"
       style="font-size:4.23333px;line-height:1.25;font-family:sans-serif;text-align:center;text-anchor:middle;stroke-width:0.264583"
       x="19.97106"
       y="-3.3419547"
       id="text3076"><tspan
         sodipodi:role="line"
         id="tspan3074"
         style="text-align:center;text-anchor:middle;stroke-width:0.264583"
         x="19.97106"
         y="-3.3419547">2</tspan></text>
    <text
       xml:space="preserve"
       style="font-size:4.23333px;line-height:1.25;font-family:sans-serif;text-align:end;text-anchor:end;stroke-width:0.264583"
       x="-3.2058334"
       y="21.570961"
       id="text3076-7"><tspan
         sodipodi:role="line"
         id="tspan3074-11"
         style="text-align:end;text-anchor:end;stroke-width:0.264583"
         x="-3.2058334"
         y="21.570961">–2</tspan></text>
    <text
       xml:space="preserve"
       style="font-size:4.23333px;line-height:1.25;font-family:sans-serif;text-align:end;text-anchor:end;stroke-width:0.264583"
       x="-3.2761133"
       y="41.538921"
       id="text3076-7-6"><tspan
         sodipodi:role="line"
         id="tspan3074-11-2"
         style="text-align:end;text-anchor:end;stroke-width:0.264583"
         x="-3.2761133"
         y="41.538921">–4</tspan></text>
    <text
       xml:space="preserve"
       style="font-size:4.23333px;line-height:1.25;font-family:sans-serif;text-align:end;text-anchor:end;stroke-width:0.264583"
       x="-3.2513087"
       y="61.535816"
       id="text3076-7-1"><tspan
         sodipodi:role="line"
         id="tspan3074-11-9"
         style="text-align:end;text-anchor:end;stroke-width:0.264583"
         x="-3.2513087"
         y="61.535816">–6</tspan></text>
    <text
       xml:space="preserve"
       style="font-size:4.23333px;line-height:1.25;font-family:sans-serif;text-align:end;text-anchor:end;stroke-width:0.264583"
       x="-3.2285709"
       y="81.538918"
       id="text3076-7-14"><tspan
         sodipodi:role="line"
         id="tspan3074-11-8"
         style="text-align:end;text-anchor:end;stroke-width:0.264583"
         x="-3.2285709"
         y="81.538918">–8</tspan></text>
    <text
       xml:space="preserve"
       style="font-size:4.23333px;line-height:1.25;font-family:sans-serif;text-align:end;text-anchor:end;stroke-width:0.264583"
       x="-3.2016993"
       y="101.53789"
       id="text3076-7-144"><tspan
         sodipodi:role="line"
         id="tspan3074-11-5"
         style="text-align:end;text-anchor:end;stroke-width:0.264583"
         x="-3.201699"
         y="101.53789">–10</tspan></text>
    <text
       xml:space="preserve"
       style="font-size:4.23333px;line-height:1.25;font-family:sans-serif;text-align:end;text-anchor:end;stroke-width:0.264583"
       x="-3.2058334"
       y="121.57095"
       id="text3076-7-4"><tspan
         sodipodi:role="line"
         id="tspan3074-11-1"
         style="text-align:end;text-anchor:end;stroke-width:0.264583"
         x="-3.2058332"
         y="121.57095">–12</tspan></text>
    <text
       xml:space="preserve"
       style="font-size:4.23333px;line-height:1.25;font-family:sans-serif;text-align:end;text-anchor:end;stroke-width:0.264583"
       x="-3.2761133"
       y="141.60295"
       id="text3076-7-5"><tspan
         sodipodi:role="line"
         id="tspan3074-11-50"
         style="text-align:end;text-anchor:end;stroke-width:0.264583"
         x="-3.276113"
         y="141.60295">–14</tspan></text>
    <text
       xml:space="preserve"
       style="font-size:4.23333px;line-height:1.25;font-family:sans-serif;text-align:center;text-anchor:middle;stroke-width:0.264583"
       x="40.022736"
       y="-3.3739941"
       id="text3076-9"><tspan
         sodipodi:role="line"
         id="tspan3074-9"
         style="text-align:center;text-anchor:middle;stroke-width:0.264583"
         x="40.022736"
         y="-3.3739941">4</tspan></text>
    <text
       xml:space="preserve"
       style="font-size:4.23333px;line-height:1.25;font-family:sans-serif;text-align:center;text-anchor:middle;stroke-width:0.264583"
       x="59.973125"
       y="-3.3770947"
       id="text3076-8"><tspan
         sodipodi:role="line"
         id="tspan3074-0"
         style="text-align:center;text-anchor:middle;stroke-width:0.264583"
         x="59.973125"
         y="-3.3770947">6</tspan></text>
    <text
       xml:space="preserve"
       style="font-size:4.23333px;line-height:1.25;font-family:sans-serif;text-align:center;text-anchor:middle;stroke-width:0.264583"
       x="79.999992"
       y="-3.3739941"
       id="text3076-5"><tspan
         sodipodi:role="line"
         id="tspan3074-1"
         style="text-align:center;text-anchor:middle;stroke-width:0.264583"
         x="79.999992"
         y="-3.3739941">8</tspan></text>
    <text
       xml:space="preserve"
       style="font-size:4.23333px;line-height:1.25;font-family:sans-serif;text-align:center;text-anchor:middle;stroke-width:0.264583"
       x="99.852203"
       y="-3.3750277"
       id="text3076-51"><tspan
         sodipodi:role="line"
         id="tspan3074-8"
         style="text-align:center;text-anchor:middle;stroke-width:0.264583"
         x="99.852203"
         y="-3.3750277">10</tspan></text>
    <text
       xml:space="preserve"
       style="font-size:4.23333px;line-height:1.25;font-family:sans-serif;text-align:center;text-anchor:middle;stroke-width:0.264583"
       x="119.85013"
       y="-3.3419547"
       id="text3076-1"><tspan
         sodipodi:role="line"
         id="tspan3074-4"
         style="text-align:center;text-anchor:middle;stroke-width:0.264583"
         x="119.85013"
         y="-3.3419547">12</tspan></text>
    <text
       xml:space="preserve"
       style="font-size:4.23333px;line-height:1.25;font-family:sans-serif;text-align:center;text-anchor:middle;stroke-width:0.264583"
       x="139.815"
       y="-3.3688264"
       id="text3076-6"><tspan
         sodipodi:role="line"
         id="tspan3074-18"
         style="text-align:center;text-anchor:middle;stroke-width:0.264583"
         x="139.815"
         y="-3.3688264">14</tspan></text>
    <text
       xml:space="preserve"
       style="font-size:4.23333px;line-height:1.25;font-family:sans-serif;stroke-width:0.264583"
       x="147.15048"
       y="1.1131095"
       id="text11327"><tspan
         sodipodi:role="line"
         id="tspan11325"
         style="stroke-width:0.264583"
         x="147.15048"
         y="1.1131095">pH</tspan></text>
    <text
       xml:space="preserve"
       style="font-size:4.23333px;line-height:1.25;font-family:sans-serif;stroke-width:0.264583"
       x="-5.5169711"
       y="-7.8227515"
       id="text13017"><tspan
         sodipodi:role="line"
         id="tspan13015"
         style="stroke-width:0.264583"
         x="-5.5169711"
         y="-7.8227515">log C</tspan></text>
    <path
       style="fill:none;stroke:#000000;stroke-width:0.264583;stroke-linecap:butt;stroke-linejoin:miter;stroke-miterlimit:4;stroke-dasharray:none;stroke-opacity:1"
       d="M 0,0 140,140"
       id="path13570"
       sodipodi:nodetypes="cc" />
    <path
       style="fill:none;stroke:#000000;stroke-width:0.264583;stroke-linecap:butt;stroke-linejoin:miter;stroke-miterlimit:4;stroke-dasharray:none;stroke-opacity:1"
       d="M 140,7.5e-7 1.25e-6,140"
       id="path13570-1"
       sodipodi:nodetypes="cc" />
    <text
       xml:space="preserve"
       style="font-size:4.23333px;line-height:1.25;font-family:sans-serif;text-align:center;text-anchor:middle;stroke-width:0.264583"
       x="47.527706"
       y="-5.9877882"
       id="text38298"><tspan
         sodipodi:role="line"
         id="tspan38296"
         style="text-align:center;text-anchor:middle;stroke-width:0.264583"
         x="47.527706"
         y="-5.9877882">pK<tspan
   style="font-size:65%;text-align:center;baseline-shift:sub;text-anchor:middle"
   id="tspan38660">a</tspan></tspan></text>
    <path
       style="fill:none;stroke:#000000;stroke-width:0.132292;stroke-linecap:butt;stroke-linejoin:miter;stroke-miterlimit:4;stroke-dasharray:1.05833, 0.529167;stroke-dashoffset:0;stroke-opacity:1"
       d="M 47.6,-1.2499999e-8 V 140"
       id="path39931"
       sodipodi:nodetypes="cc" />
    <g
       aria-label="H3O+"
       id="text41461"
       style="font-size:4.23333px;line-height:1.25;stroke-width:0.264583"
       transform="translate(0.73021807,2.6287851)">
      <path
         d="m 136.3977,128.37233 h -0.40928 v -1.50688 h -1.53582 v 1.50688 h -0.40928 v -3.07785 h 0.40928 v 1.20716 h 1.53582 v -1.20716 h 0.40928 z"
         id="path42344" />
      <path
         d="m 138.20575,128.25564 q 0.0645,0.0578 0.10615,0.14511 0.0417,0.0873 0.0417,0.22572 0,0.13705 -0.0497,0.25125 -0.0497,0.11421 -0.13974,0.19886 -0.10077,0.094 -0.23781,0.13973 -0.1357,0.0443 -0.29828,0.0443 -0.1666,0 -0.32783,-0.0403 -0.16123,-0.039 -0.26469,-0.086 v -0.28081 h 0.0202 q 0.11421,0.0752 0.26872,0.12495 0.15451,0.0497 0.29828,0.0497 0.0846,0 0.18004,-0.0282 0.0954,-0.0282 0.15451,-0.0833 0.0618,-0.0591 0.0914,-0.13033 0.0309,-0.0712 0.0309,-0.18004 0,-0.10749 -0.0349,-0.17735 -0.0336,-0.0712 -0.0941,-0.11152 -0.0605,-0.0417 -0.14645,-0.0564 -0.086,-0.0161 -0.18541,-0.0161 h -0.12093 v -0.22304 h 0.0941 q 0.20422,0 0.32514,-0.0847 0.12227,-0.086 0.12227,-0.2499 0,-0.0726 -0.0309,-0.1263 -0.0309,-0.0551 -0.086,-0.09 -0.0578,-0.0349 -0.12361,-0.0484 -0.0658,-0.0134 -0.14914,-0.0134 -0.12764,0 -0.2714,0.0457 -0.14377,0.0457 -0.27141,0.12898 h -0.0134 v -0.28081 q 0.0954,-0.047 0.25394,-0.086 0.15989,-0.0403 0.30903,-0.0403 0.14645,0 0.25797,0.0269 0.11151,0.0269 0.20153,0.086 0.0967,0.0645 0.14645,0.15585 0.0497,0.0914 0.0497,0.21363 0,0.16661 -0.11824,0.29156 -0.11689,0.12361 -0.27678,0.15586 v 0.0188 q 0.0645,0.0108 0.1478,0.0457 0.0833,0.0336 0.14107,0.0846 z"
         style="font-size:65%;baseline-shift:sub"
         id="path42346" />
      <path
         d="m 141.2683,125.64795 q 0.18811,0.20671 0.28732,0.50643 0.10129,0.29972 0.10129,0.68006 0,0.38034 -0.10335,0.68213 -0.10129,0.29972 -0.28526,0.50023 -0.19017,0.20877 -0.45061,0.31419 -0.25839,0.10542 -0.59118,0.10542 -0.32453,0 -0.59118,-0.10749 -0.26458,-0.10749 -0.45062,-0.31212 -0.18603,-0.20464 -0.28732,-0.5023 -0.0992,-0.29765 -0.0992,-0.68006 0,-0.3762 0.0992,-0.67386 0.0992,-0.29972 0.28939,-0.51263 0.1819,-0.20257 0.45062,-0.31006 0.27078,-0.10748 0.58911,-0.10748 0.33073,0 0.59324,0.10955 0.26459,0.10749 0.44855,0.30799 z m -0.0372,1.18649 q 0,-0.59945 -0.26872,-0.92397 -0.26872,-0.3266 -0.73381,-0.3266 -0.46922,0 -0.73793,0.3266 -0.26665,0.32452 -0.26665,0.92397 0,0.60565 0.27285,0.92811 0.27285,0.32039 0.73173,0.32039 0.45889,0 0.72968,-0.32039 0.27285,-0.32246 0.27285,-0.92811 z"
         id="path42348" />
      <path
         d="M 143.86225,125.91047 H 143.13 v 0.73225 h -0.22304 v -0.73225 h -0.73225 v -0.21498 h 0.73225 v -0.73225 H 143.13 v 0.73225 h 0.73225 z"
         style="font-size:65%;baseline-shift:super"
         id="path42350" />
    </g>
    <g
       aria-label="OH–"
       id="text43752"
       style="font-size:4.23333px;line-height:1.25;stroke-width:0.264583"
       transform="translate(1.4604361,-7.7506905)">
      <path
         d="m 136.4838,13.632505 q 0.1881,0.206705 0.28732,0.506428 0.10128,0.299723 0.10128,0.680062 0,0.380338 -0.10335,0.682128 -0.10128,0.299723 -0.28525,0.500227 -0.19017,0.208773 -0.45062,0.314193 -0.25838,0.10542 -0.59118,0.10542 -0.32453,0 -0.59118,-0.107487 -0.26458,-0.107487 -0.45061,-0.312126 -0.18604,-0.204638 -0.28732,-0.502294 -0.0992,-0.297656 -0.0992,-0.680061 0,-0.376204 0.0992,-0.67386 0.0992,-0.299723 0.28938,-0.51263 0.1819,-0.202572 0.45062,-0.310059 0.27079,-0.107486 0.58911,-0.107486 0.33073,0 0.59325,0.109554 0.26458,0.107486 0.44855,0.307991 z m -0.0372,1.18649 q 0,-0.599446 -0.26872,-0.923974 -0.26871,-0.326595 -0.7338,-0.326595 -0.46922,0 -0.73794,0.326595 -0.26665,0.324528 -0.26665,0.923974 0,0.605647 0.27285,0.928108 0.27285,0.320393 0.73174,0.320393 0.45889,0 0.72967,-0.320393 0.27285,-0.322461 0.27285,-0.928108 z"
         id="path45599" />
      <path
         d="m 139.87584,16.356884 h -0.40928 v -1.506883 h -1.53582 v 1.506883 h -0.40928 v -3.077846 h 0.40928 v 1.207161 h 1.53582 v -1.207161 h 0.40928 z"
         id="path45601" />
      <path
         d="m 141.83303,13.895021 h -1.33821 v -0.214974 h 1.33821 z"
         style="font-size:65%;baseline-shift:super"
         id="path45603" />
    </g>
    <path
       style="fill:none;stroke:#000000;stroke-width:0.132292;stroke-linecap:butt;stroke-linejoin:miter;stroke-miterlimit:4;stroke-dasharray:1.05833, 0.529167;stroke-dashoffset:0;stroke-opacity:1"
       d="M 0,14.999999 H 140"
       id="path45738"
       sodipodi:nodetypes="cc" />
    <g
       aria-label="log Ca"
       id="text46933"
       style="font-size:4.23333px;line-height:1.25;stroke-width:0.264583"
       transform="translate(12.613124,0.6833855)">
      <path
         d="m -25.512706,15.480623 h -0.388606 v -3.216338 h 0.388606 z"
         id="path47616" />
      <path
         d="m -22.775924,14.327206 q 0,0.564306 -0.289388,0.890901 -0.289387,0.326595 -0.775146,0.326595 -0.489892,0 -0.779279,-0.326595 -0.287321,-0.326595 -0.287321,-0.890901 0,-0.564306 0.287321,-0.890901 0.289387,-0.328662 0.779279,-0.328662 0.485759,0 0.775146,0.328662 0.289388,0.326595 0.289388,0.890901 z m -0.401009,0 q 0,-0.448551 -0.175699,-0.665592 -0.1757,-0.219108 -0.487826,-0.219108 -0.316259,0 -0.491959,0.219108 -0.173632,0.217041 -0.173632,0.665592 0,0.434082 0.175699,0.659391 0.1757,0.223242 0.489892,0.223242 0.310059,0 0.485759,-0.221175 0.177766,-0.223242 0.177766,-0.661458 z"
         id="path47618" />
      <path
         d="m -20.301658,15.218107 q 0,0.587044 -0.266651,0.861962 -0.26665,0.274919 -0.820621,0.274919 -0.183968,0 -0.359667,-0.02687 -0.173633,-0.02481 -0.343132,-0.07235 v -0.396875 h 0.02067 q 0.09509,0.03721 0.30179,0.09095 0.206706,0.05581 0.413411,0.05581 0.198438,0 0.328662,-0.04754 0.130225,-0.04754 0.202571,-0.132291 0.07235,-0.08062 0.103353,-0.194304 0.03101,-0.113688 0.03101,-0.254248 v -0.210839 q -0.1757,0.14056 -0.33693,0.210839 -0.159163,0.06821 -0.40721,0.06821 -0.413411,0 -0.657324,-0.297656 -0.241845,-0.299723 -0.241845,-0.843358 0,-0.297656 0.08268,-0.51263 0.08475,-0.217041 0.229443,-0.374137 0.134359,-0.146761 0.326595,-0.227376 0.192236,-0.08268 0.382405,-0.08268 0.200505,0 0.334863,0.04134 0.136426,0.03927 0.287321,0.121956 l 0.02481,-0.09922 h 0.363802 z m -0.388607,-0.37207 V 13.5872 q -0.155029,-0.07028 -0.289388,-0.09922 -0.132291,-0.03101 -0.264583,-0.03101 -0.320393,0 -0.504361,0.214974 -0.183968,0.214973 -0.183968,0.62425 0,0.388607 0.136425,0.589111 0.136426,0.200505 0.452686,0.200505 0.169498,0 0.338997,-0.06408 0.171565,-0.06615 0.314192,-0.1757 z"
         id="path47620" />
      <path
         d="m -15.640448,15.257381 q -0.113688,0.04961 -0.206706,0.09302 -0.09095,0.04341 -0.239778,0.09095 -0.12609,0.03927 -0.274918,0.06615 -0.146761,0.02894 -0.324528,0.02894 -0.334863,0 -0.609782,-0.09302 -0.272851,-0.09508 -0.475422,-0.295589 -0.198438,-0.19637 -0.310059,-0.49816 -0.111621,-0.303857 -0.111621,-0.704866 0,-0.380338 0.107487,-0.680061 0.107487,-0.299723 0.310059,-0.506429 0.19637,-0.200504 0.473355,-0.305924 0.279053,-0.10542 0.61805,-0.10542 0.248047,0 0.494026,0.05995 0.248047,0.05994 0.549837,0.210839 v 0.485758 h -0.03101 q -0.254248,-0.212906 -0.504361,-0.310058 -0.250114,-0.09715 -0.535368,-0.09715 -0.233577,0 -0.421679,0.07648 -0.186035,0.07441 -0.332796,0.233578 -0.142627,0.155029 -0.223242,0.39274 -0.07855,0.235645 -0.07855,0.545703 0,0.324528 0.08682,0.558105 0.08888,0.233577 0.227376,0.380338 0.144694,0.152962 0.33693,0.227376 0.194304,0.07235 0.409277,0.07235 0.295589,0 0.553971,-0.101285 0.258382,-0.101286 0.483691,-0.303858 h 0.02894 z"
         id="path47622" />
      <path
         d="m -14.300789,15.535917 q -0.206912,0.0081 -0.368143,0.03225 -0.159886,0.02284 -0.264686,0.06718 -0.108831,0.04434 -0.165261,0.120923 -0.05643,0.07524 -0.05643,0.188102 0,0.09674 0.06584,0.147795 0.06584,0.05106 0.204225,0.05106 0.122266,0 0.248563,-0.05374 0.127641,-0.05509 0.237815,-0.131671 z m -0.146451,0.631485 q -0.03628,0.0215 -0.09943,0.0618 -0.0618,0.03896 -0.126297,0.06718 -0.06852,0.0309 -0.153169,0.05106 -0.08465,0.0215 -0.19482,0.0215 -0.178697,0 -0.290215,-0.103456 -0.111517,-0.104799 -0.111517,-0.272748 0,-0.178697 0.07793,-0.300963 0.07927,-0.12361 0.233784,-0.201538 0.151826,-0.07658 0.365456,-0.110174 0.214974,-0.03493 0.489065,-0.04299 0.0081,-0.03762 0.01344,-0.06449 0.0054,-0.02822 0.0054,-0.05777 0,-0.06449 -0.02553,-0.1048 -0.02553,-0.04031 -0.07255,-0.06449 -0.04703,-0.02418 -0.110174,-0.03225 -0.06181,-0.0094 -0.137046,-0.0094 -0.114205,0 -0.260656,0.03762 -0.146451,0.03628 -0.237815,0.07255 h -0.01344 l 0.04971,-0.252594 q 0.07658,-0.02015 0.224379,-0.04568 0.147795,-0.02553 0.283497,-0.02553 0.279466,0 0.419199,0.08733 0.139732,0.08733 0.139732,0.276779 0,0.03628 -0.0067,0.07793 -0.0054,0.04031 -0.01344,0.07658 l -0.235128,1.018438 h -0.25125 z"
         style="font-style:italic;font-size:65%;baseline-shift:sub"
         id="path47624" />
    </g>
    <path
       style="fill:none;stroke:#0000ff;stroke-width:0.529167;stroke-linecap:butt;stroke-linejoin:miter;stroke-miterlimit:4;stroke-dasharray:none;stroke-opacity:1"
       d="m 0,14.999999 h 37.6 c 6.999324,0 14.400939,4.40094 20,10.000001 l 82.4,82.4"
       id="path48399"
       sodipodi:nodetypes="cssc" />
    <text
       xml:space="preserve"
       style="font-size:4.23333px;line-height:1.25;font-family:sans-serif;fill:#0000ff;fill-opacity:1;stroke-width:0.264583"
       x="134.35223"
       y="99.034424"
       id="text50452"><tspan
         sodipodi:role="line"
         id="tspan50450"
         style="fill:#0000ff;fill-opacity:1;stroke-width:0.264583"
         x="134.35223"
         y="99.034424">AH</tspan></text>
    <path
       style="fill:none;stroke:#ff0000;stroke-width:0.529167;stroke-linecap:butt;stroke-linejoin:miter;stroke-miterlimit:4;stroke-dasharray:none;stroke-opacity:1"
       d="M 140,14.999999 H 57.6 c -7.929196,0 -14.545439,4.54544 -20,10.000001 L 0,62.6"
       id="path51263"
       sodipodi:nodetypes="cssc" />
    <g
       aria-label="A–"
       id="text52816"
       style="font-size:4.23333px;line-height:1.25;fill:#ff0000;fill-opacity:1;stroke-width:0.264583"
       transform="translate(1.2392212,-1.2392212)">
      <path
         d="m 135.4368,20.860224 h -0.43615 l -0.30179,-0.857828 h -1.33118 l -0.30179,0.857828 h -0.41548 l 1.12034,-3.077846 h 0.5457 z m -0.86403,-1.209228 -0.5395,-1.511017 -0.54157,1.511017 z"
         id="path56307"
         style="fill:#ff0000;fill-opacity:1" />
      <path
         d="m 137.03432,18.398361 h -1.33821 v -0.214974 h 1.33821 z"
         style="font-size:65%;baseline-shift:super;fill:#ff0000;fill-opacity:1"
         id="path56309" />
    </g>
    <path
       style="fill:none;stroke:#000000;stroke-width:0.529167;stroke-linecap:butt;stroke-linejoin:miter;stroke-miterlimit:4;stroke-dasharray:none;stroke-opacity:1"
       d="M 31.290334,31.341967 V 0"
       id="path56480"
       sodipodi:nodetypes="cc" />
    <text
       xml:space="preserve"
       style="font-size:4.23333px;line-height:1.25;font-family:sans-serif;text-align:center;text-anchor:middle;stroke-width:0.264583"
       x="31.2862"
       y="-17.142561"
       id="text57827"><tspan
         sodipodi:role="line"
         id="tspan57825"
         style="text-align:center;text-anchor:middle;stroke-width:0.264583"
         x="31.2862"
         y="-17.142561">pH</tspan><tspan
         sodipodi:role="line"
         style="text-align:center;text-anchor:middle;stroke-width:0.264583"
         x="31.2862"
         y="-11.850899"
         id="tspan57829">à l’équilibre</tspan></text>
    <path
       style="fill:none;stroke:#000000;stroke-width:0.132292;stroke-linecap:butt;stroke-linejoin:miter;stroke-miterlimit:4;stroke-dasharray:none;stroke-opacity:1"
       d="M 31.290334,0 V -10.120306"
       id="path60030" />
    <path
       style="fill:none;stroke:#000000;stroke-width:0.13229168;stroke-linecap:butt;stroke-linejoin:miter;stroke-miterlimit:4;stroke-dasharray:1.05833346,0.52916673;stroke-opacity:1;stroke-dashoffset:0"
       d="M 31.290333,31.341965 V 108.74307 H -1.88e-4"
       id="path60284"
       sodipodi:nodetypes="ccc" />
    <path
       style="fill:none;stroke:#000000;stroke-width:0.13229168;stroke-linecap:butt;stroke-linejoin:miter;stroke-opacity:1;stroke-miterlimit:4;stroke-dasharray:1.05833346,0.52916673;stroke-dashoffset:0"
       d="M 31.290333,31.341965 H -1.88e-4"
       id="path60456"
       sodipodi:nodetypes="cc" />
    <g
       aria-label="AH + H2O ⇋ A– + H3O+
2H2O ⇋ H3O+ + OH–"
       id="text2410"
       style="font-size:4.23333px;line-height:1.25;text-align:center;text-anchor:middle;stroke-width:0.264583"
       transform="translate(22.649323,-179.72961)">
      <path
         d="m 41.514566,162.91829 h -0.436149 l -0.30179,-0.85783 h -1.331184 l -0.30179,0.85783 h -0.415478 l 1.120344,-3.07785 h 0.545703 z m -0.864029,-1.20923 -0.539502,-1.51102 -0.541568,1.51102 z"
         id="path19035" />
      <path
         d="M 44.336097,162.91829 H 43.92682 v -1.50688 h -1.535822 v 1.50688 h -0.409277 v -3.07785 h 0.409277 v 1.20716 h 1.535822 v -1.20716 h 0.409277 z"
         id="path19037" />
      <path
         d="m 49.268092,161.73593 h -1.126546 v 1.12655 h -0.343131 v -1.12655 H 46.67187 v -0.33073 h 1.126545 v -1.12654 h 0.343131 v 1.12654 h 1.126546 z"
         id="path19039" />
      <path
         d="m 53.958241,162.91829 h -0.409277 v -1.50688 h -1.535822 v 1.50688 h -0.409277 v -3.07785 h 0.409277 v 1.20716 h 1.535822 v -1.20716 h 0.409277 z"
         id="path19041" />
      <path
         d="m 55.942304,163.76496 h -1.354335 v -0.28081 q 0.141076,-0.12093 0.282153,-0.24185 0.14242,-0.12092 0.264686,-0.2405 0.257969,-0.24991 0.353364,-0.39636 0.09539,-0.14779 0.09539,-0.31843 0,-0.15586 -0.103456,-0.24319 -0.102113,-0.0887 -0.286184,-0.0887 -0.122266,0 -0.264686,0.043 -0.14242,0.043 -0.278123,0.13167 h -0.01344 v -0.28215 q 0.09539,-0.047 0.253937,-0.086 0.159887,-0.039 0.309025,-0.039 0.307681,0 0.482348,0.14914 0.174666,0.1478 0.174666,0.40173 0,0.11421 -0.02956,0.21363 -0.02822,0.0981 -0.08465,0.18676 -0.0524,0.0833 -0.12361,0.16392 -0.06987,0.0806 -0.170635,0.1787 -0.143764,0.14107 -0.296933,0.27409 -0.153169,0.13167 -0.286184,0.24453 h 1.076213 z"
         style="font-size:65%;baseline-shift:sub"
         id="path19043" />
      <path
         d="m 58.828844,160.19391 q 0.188102,0.20671 0.287321,0.50643 0.101285,0.29972 0.101285,0.68006 0,0.38034 -0.103352,0.68213 -0.101286,0.29972 -0.285254,0.50023 -0.190169,0.20877 -0.450618,0.31419 -0.258382,0.10542 -0.591178,0.10542 -0.324528,0 -0.591178,-0.10749 -0.264583,-0.10749 -0.450618,-0.31212 -0.186035,-0.20464 -0.287321,-0.5023 -0.09922,-0.29765 -0.09922,-0.68006 0,-0.3762 0.09922,-0.67386 0.09922,-0.29972 0.289388,-0.51263 0.181901,-0.20257 0.450618,-0.31006 0.270784,-0.10749 0.589111,-0.10749 0.330729,0 0.593245,0.10956 0.264583,0.10749 0.448551,0.30799 z m -0.03721,1.18649 q 0,-0.59945 -0.268717,-0.92397 -0.268718,-0.3266 -0.733805,-0.3266 -0.469222,0 -0.737939,0.3266 -0.26665,0.32452 -0.26665,0.92397 0,0.60565 0.272851,0.92811 0.272852,0.32039 0.731738,0.32039 0.458886,0 0.729671,-0.32039 0.272851,-0.32246 0.272851,-0.92811 z"
         id="path19045" />
      <path
         d="m 61.400261,161.48995 1.0604,-0.61184 -0.204639,0.40721 h 2.203481 v 0.20463 z m 3.059242,0.40928 -1.058332,0.61185 0.202571,-0.40928 h -2.203481 v -0.20257 z"
         id="path19047" />
      <path
         d="m 69.246803,162.91829 h -0.436149 l -0.30179,-0.85783 H 67.17768 l -0.30179,0.85783 h -0.415478 l 1.120344,-3.07785 h 0.545703 z m -0.864029,-1.20923 -0.539502,-1.51102 -0.541568,1.51102 z"
         id="path19049" />
      <path
         d="m 70.844328,160.45643 h -1.338212 v -0.21498 h 1.338212 z"
         style="font-size:65%;baseline-shift:super"
         id="path19051" />
      <path
         d="m 75.568478,161.73593 h -1.126545 v 1.12655 h -0.343132 v -1.12655 h -1.126545 v -0.33073 h 1.126545 v -1.12654 h 0.343132 v 1.12654 h 1.126545 z"
         id="path19053" />
      <path
         d="m 80.258629,162.91829 h -0.409277 v -1.50688 H 78.31353 v 1.50688 h -0.409277 v -3.07785 h 0.409277 v 1.20716 h 1.535822 v -1.20716 h 0.409277 z"
         id="path19055" />
      <path
         d="m 82.066682,162.8016 q 0.06449,0.0578 0.106143,0.14511 0.04165,0.0873 0.04165,0.22572 0,0.13705 -0.04971,0.25125 -0.04971,0.11421 -0.139733,0.19886 -0.100769,0.0941 -0.237815,0.13973 -0.135702,0.0443 -0.298276,0.0443 -0.166604,0 -0.327835,-0.0403 -0.16123,-0.039 -0.264686,-0.086 v -0.28081 h 0.02015 q 0.114204,0.0752 0.268717,0.12495 0.154512,0.0497 0.298276,0.0497 0.08465,0 0.18004,-0.0282 0.09539,-0.0282 0.154513,-0.0833 0.06181,-0.0591 0.09136,-0.13033 0.0309,-0.0712 0.0309,-0.18004 0,-0.10749 -0.03493,-0.17735 -0.03359,-0.0712 -0.09405,-0.11152 -0.06046,-0.0416 -0.146451,-0.0564 -0.08599,-0.0161 -0.185415,-0.0161 h -0.120923 v -0.22304 h 0.09405 q 0.204225,0 0.325148,-0.0847 0.122267,-0.086 0.122267,-0.2499 0,-0.0726 -0.0309,-0.1263 -0.0309,-0.0551 -0.08599,-0.09 -0.05778,-0.0349 -0.12361,-0.0484 -0.06584,-0.0134 -0.149138,-0.0134 -0.127641,0 -0.271405,0.0457 -0.143764,0.0457 -0.271404,0.12898 h -0.01344 V 161.849 q 0.09539,-0.047 0.253938,-0.086 0.159886,-0.0403 0.309024,-0.0403 0.146451,0 0.257969,0.0269 0.111518,0.0269 0.201538,0.086 0.09674,0.0645 0.146451,0.15585 0.04971,0.0914 0.04971,0.21363 0,0.16661 -0.118235,0.29156 -0.116892,0.12361 -0.276779,0.15586 v 0.0188 q 0.06449,0.0107 0.147795,0.0457 0.0833,0.0336 0.141076,0.0846 z"
         style="font-size:65%;baseline-shift:sub"
         id="path19057" />
      <path
         d="m 85.12923,160.19391 q 0.188102,0.20671 0.287321,0.50643 0.101286,0.29972 0.101286,0.68006 0,0.38034 -0.103353,0.68213 -0.101286,0.29972 -0.285254,0.50023 -0.190169,0.20877 -0.450618,0.31419 -0.258382,0.10542 -0.591178,0.10542 -0.324527,0 -0.591178,-0.10749 -0.264583,-0.10749 -0.450618,-0.31212 -0.186035,-0.20464 -0.28732,-0.5023 -0.09922,-0.29765 -0.09922,-0.68006 0,-0.3762 0.09922,-0.67386 0.09922,-0.29972 0.289387,-0.51263 0.181901,-0.20257 0.450619,-0.31006 0.270784,-0.10749 0.58911,-0.10749 0.330729,0 0.593245,0.10956 0.264583,0.10749 0.448551,0.30799 z m -0.03721,1.18649 q 0,-0.59945 -0.268717,-0.92397 -0.268717,-0.3266 -0.733805,-0.3266 -0.469221,0 -0.737938,0.3266 -0.266651,0.32452 -0.266651,0.92397 0,0.60565 0.272852,0.92811 0.272851,0.32039 0.731737,0.32039 0.458887,0 0.729671,-0.32039 0.272851,-0.32246 0.272851,-0.92811 z"
         id="path19059" />
      <path
         d="m 87.723181,160.45643 h -0.732255 v 0.73225 h -0.223035 v -0.73225 h -0.732254 v -0.21498 h 0.732254 v -0.73225 h 0.223035 v 0.73225 h 0.732255 z"
         style="font-size:65%;baseline-shift:super"
         id="path19061" />
      <path
         d="m 44.19347,168.23345 h -2.083592 v -0.43201 q 0.217041,-0.18604 0.434082,-0.37207 0.219108,-0.18604 0.40721,-0.37 0.396874,-0.38448 0.543635,-0.60979 0.146761,-0.22737 0.146761,-0.48989 0,-0.23978 -0.159163,-0.37414 -0.157096,-0.13642 -0.440283,-0.13642 -0.188102,0 -0.40721,0.0661 -0.219108,0.0662 -0.42788,0.20258 h -0.02067 v -0.43409 q 0.146761,-0.0723 0.390674,-0.13229 0.245979,-0.0599 0.475422,-0.0599 0.473356,0 0.742073,0.22944 0.268718,0.22738 0.268718,0.61805 0,0.1757 -0.04548,0.32866 -0.04341,0.1509 -0.130224,0.28732 -0.08062,0.12816 -0.190169,0.25218 -0.107487,0.12403 -0.262516,0.27492 -0.221175,0.21704 -0.45682,0.42168 -0.235644,0.20257 -0.440282,0.37621 h 1.655711 z"
         id="path19063" />
      <path
         d="m 47.236176,168.23345 h -0.409277 v -1.50688 h -1.535822 v 1.50688 H 44.8818 v -3.07784 h 0.409277 v 1.20716 h 1.535822 v -1.20716 h 0.409277 z"
         id="path19065" />
      <path
         d="m 49.220239,169.08012 h -1.354334 v -0.28081 q 0.141076,-0.12092 0.282153,-0.24185 0.14242,-0.12092 0.264686,-0.2405 0.257969,-0.2499 0.353363,-0.39636 0.0954,-0.14779 0.0954,-0.31843 0,-0.15585 -0.103456,-0.24318 -0.102113,-0.0887 -0.286184,-0.0887 -0.122266,0 -0.264687,0.043 -0.14242,0.043 -0.278122,0.13167 h -0.01344 v -0.28215 q 0.0954,-0.047 0.253938,-0.086 0.159887,-0.039 0.309025,-0.039 0.307681,0 0.482347,0.14914 0.174666,0.14779 0.174666,0.40173 0,0.1142 -0.02956,0.21363 -0.02822,0.0981 -0.08465,0.18676 -0.0524,0.0833 -0.12361,0.16391 -0.06987,0.0806 -0.170636,0.1787 -0.143763,0.14108 -0.296932,0.27409 -0.153169,0.13167 -0.286184,0.24454 h 1.076212 z"
         style="font-size:65%;baseline-shift:sub"
         id="path19067" />
      <path
         d="m 52.106779,165.50907 q 0.188102,0.20671 0.28732,0.50643 0.101286,0.29973 0.101286,0.68006 0,0.38034 -0.103353,0.68213 -0.101285,0.29972 -0.285253,0.50023 -0.190169,0.20877 -0.450618,0.31419 -0.258382,0.10542 -0.591178,0.10542 -0.324528,0 -0.591178,-0.10749 -0.264583,-0.10748 -0.450618,-0.31212 -0.186035,-0.20464 -0.287321,-0.5023 -0.09922,-0.29765 -0.09922,-0.68006 0,-0.3762 0.09922,-0.67386 0.09922,-0.29972 0.289388,-0.51263 0.181901,-0.20257 0.450618,-0.31005 0.270784,-0.10749 0.589111,-0.10749 0.330729,0 0.593245,0.10955 0.264583,0.10749 0.448551,0.30799 z m -0.03721,1.18649 q 0,-0.59944 -0.268718,-0.92397 -0.268717,-0.3266 -0.733804,-0.3266 -0.469222,0 -0.737939,0.3266 -0.26665,0.32453 -0.26665,0.92397 0,0.60565 0.272851,0.92811 0.272851,0.3204 0.731738,0.3204 0.458886,0 0.72967,-0.3204 0.272852,-0.32246 0.272852,-0.92811 z"
         id="path19069" />
      <path
         d="m 54.678196,166.80512 1.060399,-0.61185 -0.204638,0.40721 h 2.203481 v 0.20464 z m 3.059242,0.40927 -1.058332,0.61185 0.202571,-0.40927 h -2.203481 v -0.20258 z"
         id="path19071" />
      <path
         d="m 62.452392,168.23345 h -0.409277 v -1.50688 h -1.535823 v 1.50688 h -0.409277 v -3.07784 h 0.409277 v 1.20716 h 1.535823 v -1.20716 h 0.409277 z"
         id="path19073" />
      <path
         d="m 64.260445,168.11677 q 0.06449,0.0578 0.106143,0.14511 0.04165,0.0873 0.04165,0.22572 0,0.13704 -0.04971,0.25125 -0.04971,0.1142 -0.139732,0.19885 -0.100769,0.094 -0.237815,0.13973 -0.135702,0.0443 -0.298276,0.0443 -0.166605,0 -0.327835,-0.0403 -0.161231,-0.039 -0.264687,-0.086 v -0.28081 h 0.02015 q 0.114205,0.0752 0.268717,0.12496 0.154513,0.0497 0.298276,0.0497 0.08465,0 0.180041,-0.0282 0.0954,-0.0282 0.154512,-0.0833 0.0618,-0.0591 0.09136,-0.13033 0.0309,-0.0712 0.0309,-0.18004 0,-0.10748 -0.03493,-0.17735 -0.03359,-0.0712 -0.09405,-0.11152 -0.06046,-0.0417 -0.146451,-0.0564 -0.08599,-0.0161 -0.185414,-0.0161 H 63.552371 V 167.883 h 0.09405 q 0.204225,0 0.325148,-0.0846 0.122266,-0.086 0.122266,-0.24991 0,-0.0726 -0.0309,-0.1263 -0.0309,-0.0551 -0.08599,-0.09 -0.05777,-0.0349 -0.12361,-0.0484 -0.06584,-0.0134 -0.149138,-0.0134 -0.127641,0 -0.271404,0.0457 -0.143764,0.0457 -0.271405,0.12898 h -0.01344 v -0.2808 q 0.09539,-0.047 0.253938,-0.086 0.159887,-0.0403 0.309025,-0.0403 0.146451,0 0.257969,0.0269 0.111517,0.0269 0.201537,0.086 0.09674,0.0645 0.146451,0.15586 0.04971,0.0914 0.04971,0.21363 0,0.1666 -0.118236,0.29155 -0.116892,0.12361 -0.276778,0.15586 v 0.0188 q 0.06449,0.0108 0.147794,0.0457 0.0833,0.0336 0.141077,0.0847 z"
         style="font-size:65%;baseline-shift:sub"
         id="path19075" />
      <path
         d="m 67.322995,165.50907 q 0.188102,0.20671 0.287321,0.50643 0.101285,0.29973 0.101285,0.68006 0,0.38034 -0.103353,0.68213 -0.101285,0.29972 -0.285253,0.50023 -0.190169,0.20877 -0.450618,0.31419 -0.258382,0.10542 -0.591178,0.10542 -0.324528,0 -0.591178,-0.10749 -0.264583,-0.10748 -0.450618,-0.31212 -0.186035,-0.20464 -0.287321,-0.5023 -0.09922,-0.29765 -0.09922,-0.68006 0,-0.3762 0.09922,-0.67386 0.09922,-0.29972 0.289388,-0.51263 0.181901,-0.20257 0.450618,-0.31005 0.270784,-0.10749 0.589111,-0.10749 0.330729,0 0.593245,0.10955 0.264583,0.10749 0.448551,0.30799 z m -0.03721,1.18649 q 0,-0.59944 -0.268717,-0.92397 -0.268718,-0.3266 -0.733805,-0.3266 -0.469222,0 -0.737939,0.3266 -0.26665,0.32453 -0.26665,0.92397 0,0.60565 0.272851,0.92811 0.272852,0.3204 0.731738,0.3204 0.458886,0 0.72967,-0.3204 0.272852,-0.32246 0.272852,-0.92811 z"
         id="path19077" />
      <path
         d="m 69.916943,165.77159 h -0.732254 v 0.73225 h -0.223035 v -0.73225 h -0.732255 v -0.21497 h 0.732255 v -0.73226 h 0.223035 v 0.73226 h 0.732254 z"
         style="font-size:65%;baseline-shift:super"
         id="path19079" />
      <path
         d="m 74.717679,167.0511 h -1.126545 v 1.12654 h -0.343131 v -1.12654 h -1.126546 v -0.33073 h 1.126546 v -1.12655 h 0.343131 v 1.12655 h 1.126545 z"
         id="path19081" />
      <path
         d="m 79.347882,165.50907 q 0.188102,0.20671 0.287321,0.50643 0.101285,0.29973 0.101285,0.68006 0,0.38034 -0.103352,0.68213 -0.101286,0.29972 -0.285254,0.50023 -0.190169,0.20877 -0.450618,0.31419 -0.258382,0.10542 -0.591178,0.10542 -0.324528,0 -0.591178,-0.10749 -0.264583,-0.10748 -0.450618,-0.31212 -0.186035,-0.20464 -0.287321,-0.5023 -0.09922,-0.29765 -0.09922,-0.68006 0,-0.3762 0.09922,-0.67386 0.09922,-0.29972 0.289388,-0.51263 0.181901,-0.20257 0.450618,-0.31005 0.270784,-0.10749 0.589111,-0.10749 0.330729,0 0.593245,0.10955 0.264583,0.10749 0.448551,0.30799 z m -0.03721,1.18649 q 0,-0.59944 -0.268717,-0.92397 -0.268718,-0.3266 -0.733805,-0.3266 -0.469222,0 -0.737939,0.3266 -0.26665,0.32453 -0.26665,0.92397 0,0.60565 0.272851,0.92811 0.272852,0.3204 0.731738,0.3204 0.458886,0 0.729671,-0.3204 0.272851,-0.32246 0.272851,-0.92811 z"
         id="path19083" />
      <path
         d="m 82.739923,168.23345 h -0.409277 v -1.50688 h -1.535823 v 1.50688 h -0.409277 v -3.07784 h 0.409277 v 1.20716 h 1.535823 v -1.20716 h 0.409277 z"
         id="path19085" />
      <path
         d="m 84.697114,165.77159 h -1.338212 v -0.21497 h 1.338212 z"
         style="font-size:65%;baseline-shift:super"
         id="path19087" />
    </g>
  </g>
</svg>
