<?xml version="1.0" encoding="UTF-8" standalone="no"?>
<svg
   xmlns:dc="http://purl.org/dc/elements/1.1/"
   xmlns:cc="http://creativecommons.org/ns#"
   xmlns:rdf="http://www.w3.org/1999/02/22-rdf-syntax-ns#"
   xmlns:svg="http://www.w3.org/2000/svg"
   xmlns="http://www.w3.org/2000/svg"
   xmlns:sodipodi="http://sodipodi.sourceforge.net/DTD/sodipodi-0.dtd"
   xmlns:inkscape="http://www.inkscape.org/namespaces/inkscape"
   version="1.1"
   viewBox="0 0 309.03151 286.9895"
   stroke-miterlimit="10"
   id="svg2"
   inkscape:version="0.48.4 r9939"
   width="100%"
   height="100%"
   sodipodi:docname="TRANSM~1.SVG"
   style="fill:none;stroke:none">
  <metadata
     id="metadata79">
    <rdf:RDF>
      <cc:Work
         rdf:about="">
        <dc:format>image/svg+xml</dc:format>
        <dc:type
           rdf:resource="http://purl.org/dc/dcmitype/StillImage" />
      </cc:Work>
    </rdf:RDF>
  </metadata>
  <defs
     id="defs77" />
  <sodipodi:namedview
     pagecolor="#ffffff"
     bordercolor="#666666"
     borderopacity="1"
     objecttolerance="10"
     gridtolerance="10"
     guidetolerance="10"
     inkscape:pageopacity="0"
     inkscape:pageshadow="2"
     inkscape:window-width="992"
     inkscape:window-height="719"
     id="namedview75"
     showgrid="false"
     fit-margin-top="0"
     fit-margin-left="0"
     fit-margin-right="0"
     fit-margin-bottom="0"
     inkscape:zoom="0.32777778"
     inkscape:cx="293.74016"
     inkscape:cy="1.707152"
     inkscape:window-x="178"
     inkscape:window-y="60"
     inkscape:window-maximized="0"
     inkscape:current-layer="g7" />
  <clipPath
     id="p.0">
    <path
       d="M 0,0 960,0 960,720 0,720 0,0 z"
       clip-rule="nonzero"
       id="path5"
       inkscape:connector-curvature="0" />
  </clipPath>
  <g
     clip-path="url(#p.0)"
     id="g7"
     transform="translate(-186.25984,-74.717651)">
    <path
       d="m 0,0 960,0 0,720 -960,0 z"
       id="path9"
       inkscape:connector-curvature="0"
       style="fill:#000000;fill-opacity:0;fill-rule:nonzero" />
    <path
       d="m 352.11026,95.358734 0,0"
       id="path11"
       inkscape:connector-curvature="0"
       style="fill:#000000;fill-opacity:0;fill-rule:nonzero" />
    <path
       d="m 352.11026,95.358734 0,0"
       id="path13"
       inkscape:connector-curvature="0"
       style="stroke:#000000;stroke-width:2;stroke-linecap:butt;stroke-linejoin:round" />
    <path
       d="m 342.51538,75.715126 0,49.656794"
       id="path15"
       inkscape:connector-curvature="0"
       style="fill:#000000;fill-opacity:0;fill-rule:nonzero" />
    <path
       d="m 342.51538,75.715126 0,49.656794"
       id="path17"
       inkscape:connector-curvature="0"
       style="stroke:#000000;stroke-width:2;stroke-linecap:butt;stroke-linejoin:round" />
    <path
       d="m 322.64575,145.01552 58.92902,0 0,152.13234 -58.92902,0 z"
       id="path19"
       inkscape:connector-curvature="0"
       style="fill:#cfe2f3;fill-rule:nonzero" />
    <path
       d="m 381.57477,145.01552 19.64301,-19.643 0,152.13232 -19.64301,19.64301 z"
       id="path21"
       inkscape:connector-curvature="0"
       style="fill:#a5b4c2;fill-rule:nonzero" />
    <path
       d="m 322.64575,145.01552 19.64301,-19.643 58.92901,0 -19.643,19.643 z"
       id="path23"
       inkscape:connector-curvature="0"
       style="fill:#d8e7f5;fill-rule:nonzero" />
    <path
       d="m 322.64575,145.01552 19.64301,-19.643 58.92901,0 0,152.13232 -19.643,19.64301 -58.92902,0 z m 0,0 58.92902,0 19.643,-19.643 m -19.643,19.643 0,152.13234"
       id="path25"
       inkscape:connector-curvature="0"
       style="fill:#000000;fill-opacity:0;fill-rule:nonzero" />
    <path
       d="m 322.64575,145.01552 19.64301,-19.643 58.92901,0 0,152.13232 -19.643,19.64301 -58.92902,0 z m 0,0 58.92902,0 19.643,-19.643 m -19.643,19.643 0,152.13234"
       id="path27"
       inkscape:connector-curvature="0"
       style="stroke:#000000;stroke-width:2;stroke-linecap:butt;stroke-linejoin:round" />
    <path
       d="m 322.64575,95.358734 58.92902,0 0,200.847406 -58.92902,0 z"
       id="path29"
       inkscape:connector-curvature="0"
       style="fill:#000000;fill-opacity:0;fill-rule:nonzero" />
    <path
       d="m 381.57477,95.358734 19.64301,-19.643005 0,200.847411 -19.64301,19.643 z"
       id="path31"
       inkscape:connector-curvature="0"
       style="fill:#000000;fill-opacity:0;fill-rule:nonzero" />
    <path
       d="m 322.64575,95.358734 19.64301,-19.643005 58.92901,0 -19.643,19.643005 z"
       id="path33"
       inkscape:connector-curvature="0"
       style="fill:#000000;fill-opacity:0;fill-rule:nonzero" />
    <path
       d="m 322.64575,95.358734 19.64301,-19.643005 58.92901,0 0,200.847411 -19.643,19.643 -58.92902,0 z m 0,0 58.92902,0 19.643,-19.643005 m -19.643,19.643005 0,200.847406"
       id="path35"
       inkscape:connector-curvature="0"
       style="fill:#000000;fill-opacity:0;fill-rule:nonzero" />
    <path
       d="m 381.57477,95.358734 19.64301,-19.643005 0,200.847411 -19.64301,19.643 z"
       id="path37"
       inkscape:connector-curvature="0"
       style="fill:#000000;fill-opacity:0.2;fill-rule:nonzero" />
    <path
       d="m 322.64575,95.358734 19.64301,-19.643005 58.92901,0 -19.643,19.643005 z"
       id="path39"
       inkscape:connector-curvature="0"
       style="fill:#ffffff;fill-opacity:0.2;fill-rule:nonzero" />
    <path
       d="m 322.64575,95.358734 19.64301,-19.643005 58.92901,0 0,200.847411 -19.643,19.643 -58.92902,0 z m 0,0 58.92902,0 19.643,-19.643005 m -19.643,19.643005 0,200.847406"
       id="path41"
       inkscape:connector-curvature="0"
       style="stroke:#000000;stroke-width:2;stroke-linecap:butt;stroke-linejoin:round" />
    <path
       d="m 228.57217,188.92914 46.44095,0 0,-16.07088 32.14172,32.14174 -32.14172,32.14174 0,-16.07087 -46.44095,0 z"
       id="path43"
       inkscape:connector-curvature="0"
       style="fill:#e06666;fill-rule:nonzero" />
    <path
       d="m 416.70865,195.35432 59.29135,0 0,-9.64566 L 495.29135,205 476,224.29133 l 0,-9.64566 -59.29135,0 z"
       id="path45"
       inkscape:connector-curvature="0"
       style="fill:#f4cccc;fill-rule:nonzero" />
    <path
       d="m 233.42783,115.72704 50.86615,0 0,69.98425 -50.86615,0 z"
       id="path47"
       inkscape:connector-curvature="0"
       style="fill:#000000;fill-opacity:0;fill-rule:nonzero" />
    <path
       d="m 252.2872,162.40828 -0.20312,0.71875 -10.90625,0 0.26562,-0.71875 q 1.65625,-0.0469 2.17188,-0.28125 0.85937,-0.32813 1.28125,-0.92188 0.64062,-0.90625 1.32812,-3.28125 l 4.60938,-15.96875 q 0.57812,-2 0.57812,-3.01562 0,-0.5 -0.25,-0.84375 -0.25,-0.35938 -0.78125,-0.54688 -0.51562,-0.1875 -2.01562,-0.1875 l 0.23437,-0.71875 10.23437,0 -0.21875,0.71875 q -1.25,-0.0156 -1.84375,0.28125 -0.89062,0.39063 -1.34375,1.10938 -0.45312,0.71875 -1.1875,3.20312 l -4.57812,15.96875 q -0.625,2.21875 -0.625,2.8125 0,0.5 0.23437,0.84375 0.25,0.32813 0.78125,0.51563 0.54688,0.1875 2.23438,0.3125 z"
       id="path49"
       inkscape:connector-curvature="0"
       style="fill:#000000;fill-rule:nonzero" />
    <path
       d="m 265.07626,159.87703 q 1.6875,0 2.84375,1.42187 1.15625,1.40625 1.15625,4.45313 0,2.60937 -0.85938,5.32812 -0.85937,2.70313 -2.40625,4.70313 -1.25,1.5625 -2.59375,2.26562 -0.79687,0.39063 -1.84375,0.39063 -1.70312,0 -2.85937,-1.40625 -1.15625,-1.40625 -1.15625,-4.46875 0,-3.01563 1.15625,-6.0625 1.35937,-3.5625 3.46875,-5.40625 1.39062,-1.21875 3.09375,-1.21875 z m 0.0156,0.6875 q -0.76562,0 -1.54687,0.60937 -0.78125,0.59375 -1.625,2.5 -0.82813,1.89063 -1.59375,4.875 -0.98438,3.92188 -0.98438,6.67188 0,1.375 0.57813,2.0625 0.59375,0.67187 1.4375,0.67187 0.8125,0 1.375,-0.53125 1.51562,-1.42187 2.59375,-4.85937 1.76562,-5.625 1.76562,-9.15625 0,-1.45313 -0.59375,-2.14063 -0.59375,-0.70312 -1.40625,-0.70312 z"
       id="path51"
       inkscape:connector-curvature="0"
       style="fill:#000000;fill-rule:nonzero" />
    <path
       d="m 433.42783,123.72704 50.86615,0 0,69.98425 -50.86615,0 z"
       id="path53"
       inkscape:connector-curvature="0"
       style="fill:#000000;fill-opacity:0;fill-rule:nonzero" />
    <path
       d="m 452.2872,170.40828 -0.20313,0.71875 -10.90625,0 0.26563,-0.71875 q 1.65625,-0.0469 2.17187,-0.28125 0.85938,-0.32813 1.28125,-0.92188 0.64063,-0.90625 1.32813,-3.28125 l 4.60937,-15.96875 q 0.57813,-2 0.57813,-3.01562 0,-0.5 -0.25,-0.84375 -0.25,-0.35938 -0.78125,-0.54688 -0.51563,-0.1875 -2.01563,-0.1875 l 0.23438,-0.71875 10.23437,0 -0.21875,0.71875 q -1.25,-0.0156 -1.84375,0.28125 -0.89062,0.39063 -1.34375,1.10938 -0.45312,0.71875 -1.1875,3.20312 l -4.57812,15.96875 q -0.625,2.21875 -0.625,2.8125 0,0.5 0.23437,0.84375 0.25,0.32813 0.78125,0.51563 0.54688,0.1875 2.23438,0.3125 z"
       id="path55"
       inkscape:connector-curvature="0"
       style="fill:#000000;fill-rule:nonzero" />
    <path
       d="m 384.28348,301.53467 c 0,5.86206 -4.52356,10.6142 -10.10364,10.6142 l -10.61163,0 c -5.58008,0 -10.10364,4.7521 -10.10364,10.61416 l 0,0 c 0,-5.86206 -4.52356,-10.61416 -10.10364,-10.61416 l -10.61163,0 0,0 c -5.58008,0 -10.10364,-4.75214 -10.10364,-10.6142 z"
       id="path57"
       inkscape:connector-curvature="0"
       style="fill:#000000;fill-opacity:0;fill-rule:nonzero" />
    <path
       d="m 384.28348,301.53467 c 0,5.86206 -4.52356,10.6142 -10.10364,10.6142 l -10.61163,0 c -5.58008,0 -10.10364,4.7521 -10.10364,10.61416 l 0,0 c 0,-5.86206 -4.52356,-10.61416 -10.10364,-10.61416 l -10.61163,0 0,0 c -5.58008,0 -10.10364,-4.75214 -10.10364,-10.6142"
       id="path59"
       inkscape:connector-curvature="0"
       style="fill:#000000;fill-opacity:0;fill-rule:nonzero" />
    <path
       d="m 384.28348,301.53467 c 0,5.86206 -4.52356,10.6142 -10.10364,10.6142 l -10.61163,0 c -5.58008,0 -10.10364,4.7521 -10.10364,10.61416 l 0,0 c 0,-5.86206 -4.52356,-10.61416 -10.10364,-10.61416 l -10.61163,0 0,0 c -5.58008,0 -10.10364,-4.75214 -10.10364,-10.6142"
       id="path61"
       inkscape:connector-curvature="0"
       style="stroke:#000000;stroke-width:2;stroke-linecap:butt;stroke-linejoin:round" />
    <path
       d="m 335.6063,308.85678 35.71655,0 0,52.85037 -35.71655,0 z"
       id="path63"
       inkscape:connector-curvature="0"
       style="fill:#000000;fill-opacity:0;fill-rule:nonzero" />
    <path
       d="m 358.53488,326.35803 -5.34375,18.59375 q -0.39063,1.39062 -0.39063,1.70312 0,0.23438 0.14063,0.39063 0.15625,0.15625 0.375,0.15625 0.29687,0 0.64062,-0.26563 0.8125,-0.64062 1.70313,-1.98437 l 0.46875,0.48437 q -1.48438,2.09375 -2.73438,2.92188 -0.92187,0.59375 -1.75,0.59375 -0.59375,0 -1,-0.40625 -0.39062,-0.40625 -0.39062,-0.9375 0,-0.5625 0.5,-2.3125 l 4.23437,-14.65625 q 0.51563,-1.79688 0.51563,-2.0625 0,-0.375 -0.29688,-0.60938 -0.29687,-0.25 -0.92187,-0.25 -0.35938,0 -1.09375,0.10938 l 0,-0.57813 5.34375,-0.89062 z"
       id="path65"
       inkscape:connector-curvature="0"
       style="fill:#000000;fill-rule:nonzero" />
    <path
       d="m 335.6063,193.71129 35.71655,0 0,52.85039 -35.71655,0 z"
       id="path67"
       inkscape:connector-curvature="0"
       style="fill:#000000;fill-opacity:0;fill-rule:nonzero" />
    <path
       d="m 356.96567,230.02504 q -1.625,1.95312 -3.28125,2.875 -1.65625,0.90625 -3.5,0.90625 -2.21875,0 -3.46875,-1.25 -1.23438,-1.25 -1.23438,-3.35938 0,-2.39062 1.32813,-4.70312 1.34375,-2.3125 3.59375,-3.75 2.26562,-1.45313 4.4375,-1.45313 1.70312,0 2.54687,0.71875 0.84375,0.70313 0.84375,1.73438 0,0.96875 -0.59375,1.65625 -0.4375,0.53125 -1.07812,0.53125 -0.48438,0 -0.8125,-0.3125 -0.3125,-0.3125 -0.3125,-0.78125 0,-0.29688 0.10937,-0.54688 0.125,-0.25 0.48438,-0.59375 0.375,-0.35937 0.45312,-0.51562 0.0781,-0.15625 0.0781,-0.32813 0,-0.32812 -0.29688,-0.54687 -0.45312,-0.3125 -1.28125,-0.3125 -1.53125,0 -3.03125,1.07812 -1.5,1.07813 -2.5625,3.0625 -1.28125,2.40625 -1.28125,4.8125 0,1.59375 0.90625,2.53125 0.90625,0.92188 2.46875,0.92188 1.20313,0 2.375,-0.59375 1.1875,-0.60938 2.65625,-2.1875 l 0.45313,0.40625 z"
       id="path69"
       inkscape:connector-curvature="0"
       style="fill:#000000;fill-rule:nonzero" />
    <path
       d="m 186.25984,178.5748 35.71654,0 0,52.8504 -35.71654,0 z"
       id="path71"
       inkscape:connector-curvature="0"
       style="fill:#000000;fill-opacity:0;fill-rule:nonzero" />
    <path
       d="m 209.55672,214.51355 q -0.28125,1.51562 -1.10937,2.82812 -0.82813,1.3125 -1.98438,1.3125 -2.07812,0 -2.07812,-3.8125 l 0,-6.5 -0.0625,0 -6.28125,9.95313 -3.14063,0 9.21875,-14.5 q 0,-0.125 0.0156,-0.5 0.0156,-0.39063 0.0156,-0.64063 0,-3.71875 -1.875,-3.71875 -1.57812,0 -2.03125,2.07813 l -0.67187,-0.21875 q 0.57812,-4.20313 2.82812,-4.20313 0.85938,0 1.42188,0.46875 0.5625,0.46875 0.8125,1.3125 0.25,0.84375 0.34375,1.59375 0.10937,0.73438 0.14062,1.75 l 0.3125,10.98438 q 0.0312,1.10937 0.10938,1.78125 0.0937,0.67187 0.45312,1.25 0.375,0.57812 1.01563,0.57812 0.85937,0 1.34375,-0.85937 0.5,-0.875 0.5,-1.1875 l 0.70312,0.25 z"
       id="path73"
       inkscape:connector-curvature="0"
       style="fill:#000000;fill-rule:nonzero" />
  </g>
</svg>
